<?xml version="1.0" standalone="no"?><!DOCTYPE svg PUBLIC "-//W3C//DTD SVG 1.1//EN" "http://www.w3.org/Graphics/SVG/1.1/DTD/svg11.dtd"><svg t="1500013018399" class="icon" style="" viewBox="0 0 1024 1024" version="1.1" xmlns="http://www.w3.org/2000/svg" p-id="3985" xmlns:xlink="http://www.w3.org/1999/xlink" width="80" height="80"><defs><style type="text/css"></style></defs><path d="M894.113279 391.310244 555.69671 391.310244 555.69671 163.079192c0-33.859155-27.448142-61.331857-61.330834-61.331857l-332.206124 0c-33.879622 0-61.32981 27.472702-61.32981 61.330834l0 631.871111 420.188968 0 0 0.001023 434.423157 0L955.442066 452.641077C955.44309 418.782945 927.972435 391.310244 894.113279 391.310244zM181.326277 180.367951l121.382535 0 0 108.606557L181.326277 288.974507 181.326277 180.367951zM181.326277 322.393641l121.382535 0 0 108.606557L181.326277 431.000198 181.326277 322.393641zM181.326277 464.461287l121.382535 0 0 108.565625L181.326277 573.026912 181.326277 464.461287zM475.201397 743.840252 181.326277 743.840252 181.326277 632.200616l293.876144 0L475.202421 743.840252zM475.201397 573.026912 353.818863 573.026912 353.818863 464.461287l121.382535 0L475.201397 573.026912zM475.201397 431.000198 353.818863 431.000198 353.818863 322.393641l121.382535 0L475.201397 431.000198zM475.201397 288.974507 353.818863 288.974507 353.818863 180.367951l121.382535 0L475.201397 288.974507zM685.465239 689.298032 581.911768 689.298032c-11.740392 0-21.243837-9.500375-21.243837-21.240767 0-11.700483 9.503445-21.24179 21.243837-21.24179l103.553471 0c11.718903 0 21.24179 9.541307 21.24179 21.24179C706.707029 679.796634 697.185164 689.298032 685.465239 689.298032zM685.465239 607.565543 581.911768 607.565543c-11.740392 0-21.243837-9.543354-21.243837-21.240767 0-11.741415 9.503445-21.24486 21.243837-21.24486l103.553471 0c11.718903 0 21.24179 9.503445 21.24179 21.24486C706.707029 598.021166 697.185164 607.565543 685.465239 607.565543zM685.465239 525.791098 581.911768 525.791098c-11.740392 0-21.243837-9.502421-21.243837-21.24179 0-11.700483 9.503445-21.243837 21.243837-21.243837l103.553471 0c11.718903 0 21.24179 9.543354 21.24179 21.243837C706.707029 516.288676 697.185164 525.791098 685.465239 525.791098zM865.204879 689.298032 761.670851 689.298032c-11.740392 0-21.243837-9.500375-21.243837-21.240767 0-11.700483 9.503445-21.24179 21.243837-21.24179l103.534028 0c11.739369 0 21.242813 9.541307 21.242813 21.24179C886.446669 679.796634 876.943224 689.298032 865.204879 689.298032zM865.204879 607.565543 761.670851 607.565543c-11.740392 0-21.243837-9.543354-21.243837-21.240767 0-11.741415 9.503445-21.24486 21.243837-21.24486l103.534028 0c11.739369 0 21.242813 9.503445 21.242813 21.24486C886.446669 598.021166 876.943224 607.565543 865.204879 607.565543zM865.204879 525.791098 761.670851 525.791098c-11.740392 0-21.243837-9.502421-21.243837-21.24179 0-11.700483 9.503445-21.243837 21.243837-21.243837l103.534028 0c11.739369 0 21.242813 9.543354 21.242813 21.243837C886.446669 516.288676 876.943224 525.791098 865.204879 525.791098z" p-id="3986" fill="#bfbfbf"></path></svg>