<?xml version="1.0" standalone="no"?><!DOCTYPE svg PUBLIC "-//W3C//DTD SVG 1.1//EN" "http://www.w3.org/Graphics/SVG/1.1/DTD/svg11.dtd"><svg t="1499994185442" class="icon" style="" viewBox="0 0 1024 1024" version="1.1" xmlns="http://www.w3.org/2000/svg" p-id="6291" xmlns:xlink="http://www.w3.org/1999/xlink" width="80" height="80"><defs><style type="text/css"></style></defs><path d="M847.390653 359.514073C774.171048 90.620927 522.952446 107.871823 522.952446 107.871823c-265.104867 0-304.240189 244.067738-304.240189 244.067738-29.03529-3.787256-201.985294 46.708811-195.784058 224.707808 6.200212 177.998997 200.834074 210.821543 221.032092 207.283973s21.460778-21.710464 21.460778-21.710464c6.311753-42.921555-29.03529-41.659819-29.03529-41.659819l-15.149025-2.524496c-128.765689-20.198018-132.552945-142.651954-132.552945-142.651954 0-188.098006 194.410781-172.950004 194.410781-172.950004-2.524496-233.54508 239.856833-233.54508 239.856833-233.54508 257.530354 0 280.253892 242.382353 280.253892 242.382353 31.559786-15.149025 141.389194 25.248034 141.389194 154.013723S812.042587 719.299323 783.007297 723.086579c-29.03529 3.787256-26.510794 30.29805-26.510794 30.29805 2.524496 35.347043 32.822546 30.29805 32.822546 30.29805 69.432349-5.050016 211.751728-61.857836 211.751728-223.446072S847.390653 359.514073 847.390653 359.514073z" p-id="6292" fill="#bfbfbf"></path><path d="M707.263196 548.632315c0 0 35.347043 4.02978-51.758828 0.242524s-119.928417 37.872562-131.290185 51.758828-27.735691 0-27.735691 0c-17.635659-40.397059-74.519204-52.002374-74.519204-52.002374s-75.744101 0.243547-108.566648 0.002047c-32.822546-0.242524-32.822546 28.015054-32.822546 28.015054L280.570093 887.199311c0 0 119.928417 0 140.127458 0s65.645093 1.26276 75.781964 15.149025 23.948435 5.050016 31.521924 7.574512c37.872562-22.723537 77.006861-27.77253 77.006861-27.77253l132.552945 0c0 0 0-276.466636 0-304.431547S707.263196 548.632315 707.263196 548.632315zM332.328921 846.802252l0-248.694105c0 0 39.134299-2.524496 89.630367 0 50.496068 2.524496 74.519204 58.07058 74.519204 58.07058l5.012154 206.644407C480.029868 835.922461 332.328921 846.802252 332.328921 846.802252zM695.901427 845.679685c0 0-135.571698-9.758248-157.032476 17.143449l5.012154-206.644407c0 0 24.023136-55.546084 74.520227-58.07058 50.496068-2.524496 77.501118-1.122567 77.501118-1.122567L695.90245 845.679685z" p-id="6293" fill="#bfbfbf"></path></svg>