<?xml version="1.0" standalone="no"?><!DOCTYPE svg PUBLIC "-//W3C//DTD SVG 1.1//EN" "http://www.w3.org/Graphics/SVG/1.1/DTD/svg11.dtd"><svg t="1499960028296" class="icon" style="" viewBox="0 0 1024 1024" version="1.1" xmlns="http://www.w3.org/2000/svg" p-id="6712" xmlns:xlink="http://www.w3.org/1999/xlink" width="80" height="80"><defs><style type="text/css"></style></defs><path d="M560.186977 188.331319l0-60.115146c0-33.066093-27.064402-60.115146-60.115146-60.115146L379.840516 68.101028c-33.050744 0-60.116169 27.049053-60.116169 60.115146l0 60.115146L199.494055 188.331319l0 120.230292 480.923214 0L680.417269 188.331319 560.186977 188.331319zM500.071831 188.331319 379.840516 188.331319l0-59.997466 0.11768-0.11768 120.054283 0c0 0.028653 0.059352 0.059352 0.116657 0.11768L500.071831 188.331319z" p-id="6713" fill="#cdcdcd"></path><path d="M651.299091 949.694667c162.909323 0 294.940382-132.029012 294.940382-294.941406 0-162.924673-132.030036-294.954709-294.940382-294.954709-162.91137 0-294.941406 132.030036-294.941406 294.954709C356.357685 817.664631 488.387721 949.694667 651.299091 949.694667zM651.299091 895.155517c-132.794445 0-240.343927-107.606787-240.343927-240.402255 0-132.807748 107.549481-240.416582 240.343927-240.416582s240.402255 107.608833 240.402255 240.416582C891.701346 787.54873 784.092513 895.155517 651.299091 895.155517z" p-id="6714" fill="#cdcdcd"></path><path d="M860.058672 675.008584c-16.760732-48.610114-81.983199-140.499941-208.759581-140.499941-126.747729 0-191.970196 91.889827-208.759581 140.499941-5.40101 15.672958 2.935865 32.786731 18.609847 38.217417 3.258207 1.115404 6.574742 1.642406 9.804297 1.642406 12.475126 0 24.127514-7.806803 28.414143-20.252253 0.295735-0.825808 2.106987-5.712095 5.837962-12.911054 12.392238 69.378114 73.037457 122.04666 145.975653 122.04666 73.010851 0 133.74612-52.772924 146.066727-122.251322 4.080945 7.788383 5.909593 12.893658 5.982248 13.115716 5.460362 15.672958 22.602787 23.951505 38.21844 18.609847C857.152483 707.795315 865.488335 690.681542 860.058672 675.008584zM651.181411 778.741134c-67.50751 0-118.597095-36.084846-123.879402-129.529075 14.551414-16.795525 35.58138-34.273595 64.927755-44.789089-11.552104 13.5629-18.541285 31.133068-18.541285 50.330292 0 42.856064 34.755572 77.610612 77.610612 77.610612 42.856064 0 77.667917-34.754548 77.667917-77.610612 0-19.142989-6.960529-36.670178-18.467607-50.216705 28.333302 10.237155 48.938596 26.987654 63.425541 43.284829C768.919952 737.031173 718.817857 778.741134 651.181411 778.741134z" p-id="6715" fill="#cdcdcd"></path><path d="M369.156176 789.485849 139.378909 789.485849 139.378909 248.446465l30.058596 0 0-60.115146-60.115146 0c-16.496719 0-30.058596 13.532201-30.058596 30.058596l0 601.153506c0 16.524348 13.560854 30.055526 30.058596 30.055526l259.833817 0L369.156176 789.485849z" p-id="6716" fill="#cdcdcd"></path><path d="M740.532415 359.798553l60.114123 0L800.646538 218.389916c0-16.525372-13.501502-30.058596-30.057573-30.058596L710.474842 188.331319l0 60.115146 30.057573 0L740.532415 359.798553z" p-id="6717" fill="#cdcdcd"></path></svg>