<?xml version="1.0" standalone="no"?><!DOCTYPE svg PUBLIC "-//W3C//DTD SVG 1.1//EN" "http://www.w3.org/Graphics/SVG/1.1/DTD/svg11.dtd"><svg t="1499994016373" class="icon" style="" viewBox="0 0 1024 1024" version="1.1" xmlns="http://www.w3.org/2000/svg" p-id="5609" xmlns:xlink="http://www.w3.org/1999/xlink" width="80" height="80"><defs><style type="text/css"></style></defs><path d="M667.417187 515.552919c25.954115 10.622942 54.314023 16.58063 84.086094 16.58063 122.647341 0 222.080981-99.43978 222.080981-222.100424 0-12.780071-1.295506-25.221428-3.381004-37.403888L812.668339 441.2394l-148.705833-26.995841-50.962695-142.309146L782.665001 90.362031c-10.205433-1.444908-20.554128-2.442632-31.150464-2.442632-122.660644 0-222.109634 99.438757-222.109634 222.11475 0 31.517831 6.662747 61.473073 18.515702 88.642876C479.37137 519.402597 376.623241 620.262726 336.204693 657.576563c-12.549827-3.78828-25.794479-5.844102-39.561018-5.844102-75.735915 0-137.116891 61.380976-137.116891 137.117914 0 75.729775 61.392232 137.109728 137.116891 137.109728 75.731822 0 137.123031-61.379952 137.123031-137.109728 0-18.295692-3.6399-35.70213-10.128685-51.640124C454.158129 696.79682 536.864806 597.414345 667.417187 515.552919L667.417187 515.552919 667.417187 515.552919zM296.696888 861.776292c-40.283472 0-72.933079-32.649608-72.933079-72.932056 0-40.260959 32.66598-72.931033 72.933079-72.931033 40.268122 0 72.930009 32.670074 72.930009 72.931033C369.615641 829.125661 336.966033 861.776292 296.696888 861.776292L296.696888 861.776292 296.696888 861.776292z" p-id="5610" fill="#bfbfbf"></path><path d="M416.685679 496.553193l-129.895419-133.203768-30.934546 30.92022L48.278051 186.694029 206.039121 28.931936l207.562313 207.580732-31.351032 31.352055 129.903605 133.196605L416.685679 496.553193zM287.218002 296.584835l129.883139 133.191488 29.117155-29.124318L316.309574 267.452331l30.940686-30.940686L206.038098 95.287203 114.631272 186.694029l141.231605 141.230582L287.218002 296.584835z" p-id="5611" fill="#bfbfbf"></path><path d="M714.092229 544.769334c0 0-106.886379 29.062919-180.2779 156.781766-2.938935-7.337105 196.730617 201.128787 196.730617 201.128787 34.396391 34.378995 90.159416 34.378995 124.57218 0l49.819662-49.819662c34.396391-34.413787 34.396391-90.189092 0-124.586506L714.092229 544.769334 714.092229 544.769334 714.092229 544.769334zM800.103162 868.320335c-8.634658 8.65717-22.62837 8.65717-31.28554 0L608.676341 708.174961c-8.641821-8.634658-8.641821-22.639626 0-31.29168 8.65717-8.644891 22.650883-8.644891 31.29168 0L800.103162 837.017398C808.765449 845.674569 808.765449 859.68363 800.103162 868.320335L800.103162 868.320335 800.103162 868.320335zM870.579283 797.848307c-8.641821 8.66024-22.635533 8.66024-31.292704 0L679.152463 637.71419c-8.641821-8.648984-8.641821-22.651906 0-31.30703 8.65717-8.648984 22.645766-8.648984 31.29168 0L870.57826 766.5423C879.224174 775.216867 879.224174 789.209556 870.579283 797.848307L870.579283 797.848307 870.579283 797.848307z" p-id="5612" fill="#bfbfbf"></path></svg>