<?xml version="1.0" standalone="no"?><!DOCTYPE svg PUBLIC "-//W3C//DTD SVG 1.1//EN" "http://www.w3.org/Graphics/SVG/1.1/DTD/svg11.dtd"><svg t="1499994274938" class="icon" style="" viewBox="0 0 1310 1024" version="1.1" xmlns="http://www.w3.org/2000/svg" p-id="7964" xmlns:xlink="http://www.w3.org/1999/xlink" width="102.34375" height="80"><defs><style type="text/css"></style></defs><path d="M1045.858304 669.920256a127.276032 127.276032 0 0 0 1.345536-18.44736c0-69.725184-56.523776-126.247936-126.247936-126.247936-47.919104 0-89.602048 26.697728-110.987264 66.029568-17.051648-14.642176-39.205888-23.510016-63.444992-23.510016-49.990656 0-91.165696 37.64224-96.78848 86.125568-3.101696-0.268288-6.232064-0.433152-9.403392-0.433152-59.609088 0-107.932672 48.32256-107.932672 107.932672s48.32256 107.932672 107.932672 107.932672h374.81984c56.357888 0 102.045696-45.686784 102.045696-102.045696 0-45.658112-29.98784-84.302848-71.339008-97.33632zM271.203328 301.510656h515.849216c20.759552 0 37.74464-16.985088 37.74464-37.74464v-84.119552c0-20.759552-16.985088-37.74464-37.74464-37.74464H271.203328c-20.759552 0-37.74464 16.985088-37.74464 37.74464v84.119552c0 20.759552 16.985088 37.74464 37.74464 37.74464z m59.067392-117.74464c20.953088 0 37.940224 16.986112 37.940224 37.940224s-16.986112 37.940224-37.940224 37.940224-37.940224-16.986112-37.940224-37.940224 16.987136-37.940224 37.940224-37.940224zM271.203328 514.758656h515.849216c20.759552 0 37.74464-16.985088 37.74464-37.74464v-84.119552c0-20.759552-16.985088-37.74464-37.74464-37.74464H271.203328c-20.759552 0-37.74464 16.985088-37.74464 37.74464v84.119552c0 20.759552 16.985088 37.74464 37.74464 37.74464z m59.067392-117.74464c20.953088 0 37.940224 16.986112 37.940224 37.940224s-16.986112 37.940224-37.940224 37.940224-37.940224-16.986112-37.940224-37.940224 16.987136-37.940224 37.940224-37.940224z" p-id="7965" fill="#bfbfbf"></path><path d="M479.414272 761.367552c0-73.1392 54.595584-133.768192 125.174784-143.268864 7.827456-20.92544 20.692992-39.254016 37.049344-53.62688H271.203328c-20.759552 0-37.74464 16.985088-37.74464 37.74464v241.112064c0 20.759552 16.985088 37.74464 37.74464 37.74464h271.81056c-38.350848-26.020864-63.599616-69.968896-63.599616-119.7056z" p-id="7966" fill="#bfbfbf"></path></svg>