<?xml version="1.0" standalone="no"?><!DOCTYPE svg PUBLIC "-//W3C//DTD SVG 1.1//EN" "http://www.w3.org/Graphics/SVG/1.1/DTD/svg11.dtd"><svg t="1499994157731" class="icon" style="" viewBox="0 0 1024 1024" version="1.1" xmlns="http://www.w3.org/2000/svg" p-id="5997" xmlns:xlink="http://www.w3.org/1999/xlink" width="80" height="80"><defs><style type="text/css"></style></defs><path d="M959.352173 234.63857c-29.087187-34.659944-80.754393-39.177874-115.40952-10.10032-31.081242 26.086472-37.838871 70.307281-17.936858 104.158044l-87.088166 73.076801c-0.144497-0.12523-0.274544-0.269727-0.423857-0.394958-31.095691-26.081656-75.817422-25.055729-105.699341 0.428674l-87.121882-73.105701a81.419078 81.419078 0 0 0 11.323726-41.40794c0-45.251552-36.673264-81.92-81.92-81.92s-81.92 36.668448-81.92 81.92c0 15.123989 4.171138 29.241317 11.318908 41.403124L317.358119 401.797178c-29.881919-25.484403-74.608467-26.510329-105.699342-0.428674-34.655127 29.087187-39.177874 80.754393-10.095503 115.40952 29.082371 34.659944 80.754393 39.18269 115.40952 10.10032 31.081242-26.086472 37.838871-70.302465 17.936858-104.158043L422.007451 349.633866c14.300357 12.185889 32.810386 19.579304 53.068824 19.579304s38.76365-7.388598 53.064007-19.56967l87.107432 73.086434c-19.90683 33.855579-13.144384 78.071571 17.936858 104.153227 34.655127 29.087187 86.322333 24.56444 115.40952-10.095503 22.878645-27.266529 24.8727-65.023518 7.846171-94.067357l87.121882-73.105701c29.881919 25.489219 74.60365 26.519962 105.699341 0.43349 34.65031-29.082371 39.168241-80.749577 10.090687-115.40952zM299.416444 505.960038c-23.105024 19.381825-57.553039 16.371477-76.944497-6.733547-19.386642-23.105024-16.36666-57.548222 6.733547-76.934864 23.105024-19.386642 57.548222-16.376294 76.934863 6.723914 19.391458 23.10984 16.38111 57.557855-6.723913 76.944497z m121.049708-218.666868c0-30.161279 24.448843-54.619755 54.614939-54.619755 30.161279 0 54.610122 24.458476 54.610123 54.619755s-24.448843 54.610122-54.610123 54.610123c-30.166096 0-54.614939-24.448843-54.614939-54.610123z m307.209634 211.938138c-19.386642 23.105024-53.839473 26.115372-76.944497 6.733546-23.105024-19.386642-26.115372-53.839473-6.723914-76.944497 19.377008-23.105024 53.82984-26.115372 76.934864-6.723913 23.105024 19.381825 26.125005 53.834657 6.733547 76.934864z m204.02935-170.101524c-23.105024 19.386642-57.553039 16.371477-76.934863-6.72873-19.386642-23.10984-16.376294-57.548222 6.723913-76.939681s57.553039-16.376294 76.944497 6.72873c19.386642 23.105024 16.36666 57.553039-6.733547 76.939681z" p-id="5998" fill="#bfbfbf"></path><path d="M694.085118 686.730235a13.534525 13.534525 0 0 0-7.985852 2.620207c-65.606322 52.991759-149.05317 84.781035-239.956049 84.781035-211.133772 0-382.290122-171.15635-382.290122-382.290122 0-142.613434 78.134186-266.923951 193.890499-332.636237l-0.0289-0.043349a13.61159 13.61159 0 0 0 5.828034-11.159963 13.654939 13.654939 0 0 0-13.654939-13.650122c-2.562408 0-4.932154 0.746566-6.984007 1.979605l-0.01445-0.019266-0.481656 0.288993-0.192662 0.110781c-122.86555 70.702239-205.66698 203.196087-205.66698 355.124741 0 223.25223 178.636463 404.658213 400.756801 409.373622v182.099567H305.061449v27.305061h284.581448v-27.305061H464.609897v-182.292229c89.891402-3.992926 172.211176-37.020056 237.918645-89.848053l-0.067432-0.091515a13.573057 13.573057 0 0 0 5.269313-10.702389 13.645306 13.645306 0 0 0-13.645305-13.645306z" p-id="5999" fill="#bfbfbf"></path><path d="M744.938325 553.147846a13.553791 13.553791 0 0 0-9.898024 6.757629l-0.086698-0.043349c-49.191496 81.823669-133.490875 141.58269-235.399586 155.863782-179.21445 25.123161-344.870292-99.794243-369.988636-279.018326-25.123161-179.21445 99.794243-344.865475 279.013509-369.983819 153.715597-21.554092 297.345325 67.345099 350.996952 206.153452 0.057799 0.178213 0.13968 0.346792 0.207112 0.525005 0.096331 0.221562 0.187846 0.43349 0.264911 0.655052l0.048165-0.01445a13.601957 13.601957 0 0 0 14.271458 7.923236 13.645306 13.645306 0 0 0 10.938401-18.177685v-0.004817C727.762484 112.326924 572.004666 16.231797 404.78826 39.673979c-194.160226 27.213547-329.481392 206.678457-302.267846 400.82905 27.218363 194.155409 206.673641 329.476576 400.833866 302.263029 109.836764-15.398532 200.710743-79.612869 254.107093-167.568015a13.573057 13.573057 0 0 0 2.899568-10.427845 13.659755 13.659755 0 0 0-15.422616-11.622352z" p-id="6000" fill="#bfbfbf"></path></svg>