<?xml version="1.0" standalone="no"?><!DOCTYPE svg PUBLIC "-//W3C//DTD SVG 1.1//EN" "http://www.w3.org/Graphics/SVG/1.1/DTD/svg11.dtd"><svg t="1501492230150" class="icon" style="" viewBox="0 0 1024 1024" version="1.1" xmlns="http://www.w3.org/2000/svg" p-id="3044" xmlns:xlink="http://www.w3.org/1999/xlink" width="80" height="80"><defs><style type="text/css"></style></defs><path d="M830.114 385.306l-653.89 0c-8.669 0-15.693-7.024-15.693-15.693l0-83.698c0-8.669 7.024-15.693 15.693-15.693l653.89 0c8.669 0 15.693 7.024 15.693 15.693l0 83.698C845.807 378.282 838.783 385.306 830.114 385.306zM191.918 353.92l622.503 0 0-52.311L191.918 301.609 191.918 353.92z" p-id="3045" fill="#bfbfbf"></path><path d="M963.507 505.622 61.14 505.622c-8.669 0-15.693-7.024-15.693-15.693L45.447 369.613c0-8.669 7.024-15.693 15.693-15.693l902.368 0c8.669 0 15.693 7.024 15.693 15.693l0 120.316C979.201 498.598 972.177 505.622 963.507 505.622zM76.833 474.235l870.981 0 0-88.929L76.833 385.306 76.833 474.235z" p-id="3046" fill="#bfbfbf"></path><path d="M963.507 984.269 61.14 984.269c-8.669 0-15.693-7.024-15.693-15.693L45.447 484.697c0-8.669 7.024-15.693 15.693-15.693l902.368 0c8.669 0 15.693 7.024 15.693 15.693l0 483.878C979.201 977.245 972.177 984.269 963.507 984.269zM76.833 952.882l870.981 0L947.814 500.391 76.833 500.391 76.833 952.882z" p-id="3047" fill="#bfbfbf"></path><path d="M176.224 492.544c-8.669 0-15.693-7.024-15.693-15.693L160.531 369.613c0-8.669 7.024-15.693 15.693-15.693s15.693 7.024 15.693 15.693l0 107.238C191.918 485.52 184.894 492.544 176.224 492.544z" p-id="3048" fill="#bfbfbf"></path><path d="M307.002 492.544c-8.669 0-15.693-7.024-15.693-15.693L291.309 369.613c0-8.669 7.024-15.693 15.693-15.693 8.669 0 15.693 7.024 15.693 15.693l0 107.238C322.696 485.52 315.671 492.544 307.002 492.544z" p-id="3049" fill="#bfbfbf"></path><path d="M311.299 984.269l-55.473 0c-8.669 0-15.693-7.024-15.693-15.693l0-86.313c0-8.669 7.024-15.693 15.693-15.693l55.473 0c8.669 0 15.693 7.024 15.693 15.693l0 86.313C326.992 977.245 319.968 984.269 311.299 984.269zM271.519 952.882l24.087 0 0-54.927-24.087 0L271.519 952.882z" p-id="3050" fill="#bfbfbf"></path><path d="M465.984 984.269l-55.468 0c-8.669 0-15.693-7.024-15.693-15.693l0-86.313c0-8.669 7.024-15.693 15.693-15.693l55.468 0c8.669 0 15.693 7.024 15.693 15.693l0 86.313C481.678 977.245 474.653 984.269 465.984 984.269zM426.209 952.882l24.082 0 0-54.927-24.082 0L426.209 952.882z" p-id="3051" fill="#bfbfbf"></path><path d="M156.608 984.269 61.14 984.269c-8.669 0-15.693-7.024-15.693-15.693l0-86.313c0-8.669 7.024-15.693 15.693-15.693l95.468 0c8.669 0 15.693 7.024 15.693 15.693l0 86.313C172.301 977.245 165.277 984.269 156.608 984.269zM76.833 952.882l64.081 0 0-54.927L76.833 897.955 76.833 952.882z" p-id="3052" fill="#bfbfbf"></path><path d="M620.67 984.269l-55.468 0c-8.669 0-15.693-7.024-15.693-15.693l0-86.313c0-8.669 7.024-15.693 15.693-15.693l55.468 0c8.669 0 15.693 7.024 15.693 15.693l0 86.313C636.363 977.245 629.339 984.269 620.67 984.269zM580.895 952.882l24.081 0 0-54.927-24.081 0L580.895 952.882z" p-id="3053" fill="#bfbfbf"></path><path d="M775.361 984.269l-55.468 0c-8.669 0-15.693-7.024-15.693-15.693l0-86.313c0-8.669 7.024-15.693 15.693-15.693l55.468 0c8.669 0 15.693 7.024 15.693 15.693l0 86.313C791.054 977.245 784.03 984.269 775.361 984.269zM735.586 952.882l24.082 0 0-54.927-24.082 0L735.586 952.882z" p-id="3054" fill="#bfbfbf"></path><path d="M963.507 984.269l-88.929 0c-8.669 0-15.693-7.024-15.693-15.693l0-86.313c0-8.669 7.024-15.693 15.693-15.693l88.929 0c8.669 0 15.693 7.024 15.693 15.693l0 86.313C979.201 977.245 972.177 984.269 963.507 984.269zM890.272 952.882l57.542 0 0-54.927-57.542 0L890.272 952.882z" p-id="3055" fill="#bfbfbf"></path><path d="M437.78 492.544c-8.669 0-15.693-7.024-15.693-15.693L422.087 369.613c0-8.669 7.024-15.693 15.693-15.693 8.669 0 15.693 7.024 15.693 15.693l0 107.238C453.474 485.52 446.449 492.544 437.78 492.544z" p-id="3056" fill="#bfbfbf"></path><path d="M568.558 492.544c-8.669 0-15.693-7.024-15.693-15.693L552.865 369.613c0-8.669 7.024-15.693 15.693-15.693 8.669 0 15.693 7.024 15.693 15.693l0 107.238C584.251 485.52 577.227 492.544 568.558 492.544z" p-id="3057" fill="#bfbfbf"></path><path d="M699.336 492.544c-8.669 0-15.693-7.024-15.693-15.693L683.643 369.613c0-8.669 7.024-15.693 15.693-15.693 8.669 0 15.693 7.024 15.693 15.693l0 107.238C715.029 485.52 708.005 492.544 699.336 492.544z" p-id="3058" fill="#bfbfbf"></path><path d="M830.114 492.544c-8.669 0-15.693-7.024-15.693-15.693L814.421 369.613c0-8.669 7.024-15.693 15.693-15.693 8.669 0 15.693 7.024 15.693 15.693l0 107.238C845.807 485.52 838.783 492.544 830.114 492.544z" p-id="3059" fill="#bfbfbf"></path><path d="M503.169 291.146c-8.669 0-15.693-7.024-15.693-15.693L487.476 66.208c0-8.669 7.024-15.693 15.693-15.693 8.669 0 15.693 7.024 15.693 15.693l0 209.245C518.863 284.122 511.838 291.146 503.169 291.146z" p-id="3060" fill="#bfbfbf"></path><path d="M596.813 213.987l-93.644 0c-8.669 0-15.693-7.024-15.693-15.693L487.476 97.595c0-8.669 7.024-15.693 15.693-15.693l93.644 0c8.669 0 15.693 7.024 15.693 15.693l0 100.699C612.507 206.963 605.482 213.987 596.813 213.987zM518.863 182.601l62.257 0 0-69.312-62.257 0L518.863 182.601z" p-id="3061" fill="#bfbfbf"></path><path d="M694.105 234.912l-93.644 0c-8.669 0-15.693-7.024-15.693-15.693L584.768 118.519c0-8.669 7.024-15.693 15.693-15.693l93.644 0c8.669 0 15.693 7.024 15.693 15.693l0 100.699C709.798 227.887 702.774 234.912 694.105 234.912zM616.154 203.525l62.257 0 0-69.312-62.257 0L616.154 203.525z" p-id="3062" fill="#bfbfbf"></path><path d="M255.825 984.269l-99.218 0c-8.669 0-15.693-7.024-15.693-15.693L140.914 654.709c0-40.383 29.292-73.236 65.302-73.236s65.302 32.853 65.302 73.236l0 313.867C271.519 977.245 264.494 984.269 255.825 984.269zM172.301 952.882l67.831 0L240.132 654.709c0-23.075-15.213-41.849-33.915-41.849s-33.915 18.774-33.915 41.849L172.302 952.882z" p-id="3063" fill="#bfbfbf"></path><path d="M410.516 984.269l-99.223 0c-8.669 0-15.693-7.024-15.693-15.693L295.6 654.709c0-40.383 29.297-73.236 65.307-73.236s65.302 32.853 65.302 73.236l0 313.867C426.209 977.245 419.185 984.269 410.516 984.269zM326.987 952.882l67.836 0L394.823 654.709c0-23.075-15.213-41.849-33.915-41.849-18.702 0-33.921 18.774-33.921 41.849L326.987 952.882z" p-id="3064" fill="#bfbfbf"></path><path d="M874.578 984.269l-99.218 0c-8.669 0-15.693-7.024-15.693-15.693L759.667 654.709c0-40.383 29.292-73.236 65.302-73.236s65.302 32.853 65.302 73.236l0 313.867C890.272 977.245 883.248 984.269 874.578 984.269zM791.054 952.882l67.831 0L858.885 654.709c0-23.075-15.213-41.849-33.915-41.849s-33.915 18.774-33.915 41.849L791.055 952.882z" p-id="3065" fill="#bfbfbf"></path><path d="M719.893 984.269 620.67 984.269c-8.669 0-15.693-7.024-15.693-15.693L604.977 654.709c0-40.383 29.292-73.236 65.302-73.236s65.307 32.853 65.307 73.236l0 313.867C735.586 977.245 728.562 984.269 719.893 984.269zM636.363 952.882l67.836 0L704.199 654.709c0-23.075-15.218-41.849-33.921-41.849s-33.915 18.774-33.915 41.849L636.363 952.882z" p-id="3066" fill="#bfbfbf"></path><path d="M565.202 984.269l-99.218 0c-8.669 0-15.693-7.024-15.693-15.693L450.291 654.709c0-40.383 29.292-73.236 65.302-73.236s65.302 32.853 65.302 73.236l0 313.867C580.895 977.245 573.871 984.269 565.202 984.269zM481.678 952.882l67.831 0L549.509 654.709c0-23.075-15.213-41.849-33.915-41.849s-33.915 18.774-33.915 41.849L481.679 952.882z" p-id="3067" fill="#bfbfbf"></path></svg>