<?xml version="1.0" standalone="no"?><!DOCTYPE svg PUBLIC "-//W3C//DTD SVG 1.1//EN" "http://www.w3.org/Graphics/SVG/1.1/DTD/svg11.dtd"><svg t="1500013377462" class="icon" style="" viewBox="0 0 1024 1024" version="1.1" xmlns="http://www.w3.org/2000/svg" p-id="4804" xmlns:xlink="http://www.w3.org/1999/xlink" width="80" height="80"><defs><style type="text/css"></style></defs><path d="M846.785368 307.031768 477.839481 307.031768c-64.040549 0-116.152417-52.116985-116.152417-116.154463 0-64.040549 52.111868-116.15037 116.152417-116.15037l368.945887 0c64.040549 0 116.149347 52.109822 116.149347 116.15037C962.934714 254.915807 910.825916 307.031768 846.785368 307.031768zM477.839481 129.386836c-33.909297 0-61.493539 27.582195-61.493539 61.490469 0 33.906228 27.584242 61.491493 61.493539 61.491493l368.945887 0c33.909297 0 61.490469-27.585265 61.490469-61.491493 0-33.909297-27.581172-61.490469-61.490469-61.490469L477.839481 129.386836z" p-id="4805" fill="#bfbfbf"></path><path d="M846.785368 949.273065 477.839481 949.273065c-64.040549 0-116.152417-52.123125-116.152417-116.149347 0-64.052828 52.111868-116.149347 116.152417-116.149347l368.945887 0c64.040549 0 116.149347 52.096519 116.149347 116.149347C962.934714 897.14994 910.825916 949.273065 846.785368 949.273065zM477.839481 771.633249c-33.909297 0-61.493539 27.568892-61.493539 61.490469 0 33.892925 27.584242 61.490469 61.493539 61.490469l368.945887 0c33.909297 0 61.490469-27.597545 61.490469-61.490469 0-33.920554-27.581172-61.490469-61.490469-61.490469L477.839481 771.633249z" p-id="4806" fill="#bfbfbf"></path><path d="M846.785368 634.986055 477.839481 634.986055c-64.040549 0-116.152417-52.123125-116.152417-116.148323 0-64.053851 52.111868-116.152417 116.152417-116.152417l368.945887 0c64.040549 0 116.149347 52.098565 116.149347 116.152417C962.934714 582.862931 910.825916 634.986055 846.785368 634.986055zM477.839481 457.345216c-33.909297 0-61.493539 27.568892-61.493539 61.491493 0 33.892925 27.584242 61.489446 61.493539 61.489446l368.945887 0c33.909297 0 61.490469-27.597545 61.490469-61.489446 0-33.921577-27.581172-61.491493-61.490469-61.491493L477.839481 457.345216z" p-id="4807" fill="#bfbfbf"></path><path d="M190.87884 307.031768l-13.664208 0c-64.040549 0-116.149347-52.116985-116.149347-116.154463 0-64.040549 52.108798-116.15037 116.149347-116.15037l13.664208 0c64.040549 0 116.149347 52.109822 116.149347 116.15037C307.028187 254.915807 254.919389 307.031768 190.87884 307.031768zM177.214632 129.386836c-33.909297 0-61.491493 27.582195-61.491493 61.490469 0 33.906228 27.582195 61.491493 61.491493 61.491493l13.664208 0c33.909297 0 61.491493-27.585265 61.491493-61.491493 0-33.909297-27.582195-61.490469-61.491493-61.490469L177.214632 129.386836z" p-id="4808" fill="#bfbfbf"></path><path d="M190.87884 949.273065l-13.664208 0c-64.040549 0-116.149347-52.123125-116.149347-116.149347 0-64.052828 52.108798-116.149347 116.149347-116.149347l13.664208 0c64.040549 0 116.149347 52.096519 116.149347 116.149347C307.028187 897.14994 254.919389 949.273065 190.87884 949.273065zM177.214632 771.633249c-33.909297 0-61.491493 27.568892-61.491493 61.490469 0 33.892925 27.582195 61.490469 61.491493 61.490469l13.664208 0c33.909297 0 61.491493-27.597545 61.491493-61.490469 0-33.920554-27.582195-61.490469-61.491493-61.490469L177.214632 771.633249z" p-id="4809" fill="#bfbfbf"></path><path d="M190.87884 634.986055l-13.664208 0c-64.040549 0-116.149347-52.123125-116.149347-116.148323 0-64.053851 52.108798-116.152417 116.149347-116.152417l13.664208 0c64.040549 0 116.149347 52.098565 116.149347 116.152417C307.028187 582.862931 254.919389 634.986055 190.87884 634.986055zM177.214632 457.345216c-33.909297 0-61.491493 27.568892-61.491493 61.491493 0 33.892925 27.582195 61.489446 61.491493 61.489446l13.664208 0c33.909297 0 61.491493-27.597545 61.491493-61.489446 0-33.921577-27.582195-61.491493-61.491493-61.491493L177.214632 457.345216z" p-id="4810" fill="#bfbfbf"></path></svg>