<?xml version="1.0" standalone="no"?><!DOCTYPE svg PUBLIC "-//W3C//DTD SVG 1.1//EN" "http://www.w3.org/Graphics/SVG/1.1/DTD/svg11.dtd"><svg t="1501492361608" class="icon" style="" viewBox="0 0 1024 1024" version="1.1" xmlns="http://www.w3.org/2000/svg" p-id="3976" xmlns:xlink="http://www.w3.org/1999/xlink" width="80" height="80"><defs><style type="text/css"></style></defs><path d="M174.312731 771.661568 203.791519 771.661568 203.791519 826.942049 174.312731 826.942049 174.312731 771.661568ZM174.312731 895.829323 203.791519 895.829323 203.791519 951.125323 174.312731 951.125323 174.312731 895.829323ZM580.257356 1023.038047C572.127419 1023.038047 565.517964 1016.428596 565.517964 1008.298655L565.517964 844.303504 447.602812 844.303504 447.602812 1008.298655C447.602812 1016.428596 440.993358 1023.038047 432.863421 1023.038047 424.73348 1023.038047 418.124025 1016.428596 418.124025 1008.298655L418.155056 830.060599 418.030934 828.245324C418.124025 821.434171 424.73348 814.824716 432.863421 814.824716L579.357478 814.824716C584.539541 814.824716 589.240631 817.555383 591.955779 822.101324 594.096874 825.266414 594.996752 828.152234 594.996752 831.115626L594.996752 1008.298655C594.996752 1016.428596 588.387297 1023.038047 580.257356 1023.038047M809.316844 771.661568 838.795631 771.661568 838.795631 826.942049 809.316844 826.942049 809.316844 771.661568ZM809.316844 895.829323 838.795631 895.829323 838.795631 951.125323 809.316844 951.125323 809.316844 895.829323ZM725.255754 637.222781 983.629571 637.222781 983.629571 557.692115 725.255754 557.692115 725.255754 637.222781ZM709.616484 1023.999988C701.486543 1023.999988 694.877088 1017.390533 694.877088 1009.260597L694.877088 435.231027 724.37139 450.482418 724.37139 528.213327 998.368963 528.213327C1006.498904 528.213327 1013.108359 534.822782 1013.108359 542.952719L1013.108359 651.962173C1013.108359 660.092114 1006.498904 666.717083 998.368963 666.717083L724.37139 666.717083 724.37139 1009.260597C724.37139 1017.390533 717.746421 1023.999988 709.616484 1023.999988L709.616484 1023.999988ZM72.908805 1023.038047C64.778866 1023.038047 58.169411 1016.428596 58.169411 1008.298655L58.169411 737.264478 87.648199 737.264478 87.648199 1008.298655C87.648199 1016.428596 81.038744 1023.038047 72.908805 1023.038047M940.204215 1023.038047C932.074274 1023.038047 925.464819 1016.428596 925.464819 1008.298655L925.464819 737.264478 954.943607 737.264478 954.943607 1008.298655C954.943607 1016.428596 948.334152 1023.038047 940.204215 1023.038047M29.478793 637.222781 287.852608 637.222781 287.852608 557.692115 29.478793 557.692115 29.478793 637.222781ZM303.507397 1023.999988C295.377457 1023.999988 288.768003 1017.390533 288.768003 1009.260597L288.768003 666.717083 14.7394 666.717083C6.60946 666.717083 6.0e-06 660.092114 6.0e-06 651.962173L6.0e-06 542.952719C6.0e-06 534.822782 6.60946 528.213327 14.7394 528.213327L288.768003 528.213327 288.768003 449.334297 318.24679 434.098419 318.24679 1009.260597C318.24679 1017.390533 311.637336 1023.999988 303.507397 1023.999988L303.507397 1023.999988ZM521.000341 37.507878 638.931007 85.589332 521.000341 133.267393 521.000341 37.507878ZM804.384577 378.344723 521.000341 231.571391 521.000341 165.073453 683.645673 99.304726C684.561065 98.947878 685.414398 98.466908 686.267731 97.923878 687.121065 97.349817 688.020943 96.527514 689.650033 94.634666 690.627488 93.393453 691.294641 92.276362 691.418763 92.074666L692.023853 90.135272C692.210033 89.592241 692.427245 89.080241 692.659974 87.171878L692.753065 85.108363 692.551366 82.889696 691.713551 80.034908C691.418763 79.321211 691.015366 78.65406 690.363731 77.459393 689.541429 76.202666 688.362276 75.007999 686.826276 73.735757L685.2127 72.851393C684.731731 72.57212 684.266276 72.261817 683.506033 71.935999L513.397914 2.567758C511.613675 1.854061 509.782886 1.481697 507.905553 1.481697 503.825067 1.481697 499.868702 3.219394 496.362279 6.912 493.243734 9.797818 491.521553 13.63006 491.521553 17.741576L491.506035 231.261088 208.742403 378.344723C205.235979 380.159996 202.660464 383.21648 201.465798 386.955632 200.271131 390.710299 200.612464 394.713208 202.427737 398.219632 204.972222 403.12242 209.999131 406.178904 215.53804 406.178904 217.896343 406.178904 220.161555 405.620359 222.287131 404.518783L506.571247 257.419634 790.839852 404.518783C792.94991 405.620359 795.23064 406.178904 797.588942 406.178904 803.127852 406.178904 808.154761 403.12242 810.699244 398.204117 814.438397 390.989571 811.599122 382.068359 804.384577 378.344723L804.384577 378.344723ZM506.560388 434.61352C461.038934 434.61352 424.019783 471.648187 424.019783 517.169641 424.019783 562.691095 461.038934 599.725762 506.560388 599.725762 552.081843 599.725762 589.116509 562.691095 589.116509 517.169641 589.116509 471.648187 552.081843 434.61352 506.560388 434.61352M506.560388 629.20455C444.794569 629.20455 394.52548 578.950974 394.52548 517.169641 394.52548 455.388308 444.794569 405.134735 506.560388 405.134735 568.341721 405.134735 618.595297 455.388308 618.595297 517.169641 618.595297 578.950974 568.341721 629.20455 506.560388 629.20455" p-id="3977" fill="#bfbfbf"></path></svg>