<?xml version="1.0" standalone="no"?><!DOCTYPE svg PUBLIC "-//W3C//DTD SVG 1.1//EN" "http://www.w3.org/Graphics/SVG/1.1/DTD/svg11.dtd"><svg t="1501492406298" class="icon" style="" viewBox="0 0 1024 1024" version="1.1" xmlns="http://www.w3.org/2000/svg" p-id="4744" xmlns:xlink="http://www.w3.org/1999/xlink" width="80" height="80"><defs><style type="text/css"></style></defs><path d="M895.228166 961.05816 895.228166 138.631395 760.978798 25.296246 314.211243 187.032873 314.211243 227.46703 719.947092 95.010309 719.947092 990.736433 719.947092 1020.414705 749.625365 1020.414705 990.039292 1020.414705 990.039292 961.05816Z" p-id="4745" fill="#bfbfbf"></path><path d="M168.807625 707.697335 381.53511 666.466446 381.53511 561.895351 168.807625 616.073138Z" p-id="4746" fill="#bfbfbf"></path><path d="M168.807625 1021.808987 381.53511 1021.808987 381.53511 912.059132 168.807625 926.99786Z" p-id="4747" fill="#bfbfbf"></path><path d="M168.807625 864.255203 381.53511 844.336899 381.53511 739.964987 168.807625 774.622836Z" p-id="4748" fill="#bfbfbf"></path><path d="M168.807625 548.151721 381.53511 491.384556 381.53511 382.8298 168.807625 452.543863Z" p-id="4749" fill="#bfbfbf"></path><path d="M617.56701 278.059521 497.459638 207.349543 45.114958 365.301692 44.915775 1024 104.471504 1024 104.471504 397.170978 442.883486 289.213772 442.883486 1020.613888 617.56701 1020.613888Z" p-id="4750" fill="#bfbfbf"></path></svg>